<mxfile host="app.diagrams.net" modified="2024-07-22T23:59:35.038Z" agent="Mozilla/5.0 (Windows NT 10.0; Win64; x64) AppleWebKit/537.36 (KHTML, like Gecko) Chrome/124.0.0.0 YaBrowser/24.6.0.0 Safari/537.36" version="24.7.3" etag="wYi8UqKQedJyX19Bxf6b" type="github">
  <diagram name="Страница — 1" id="tcoJsad38Roc6Jvi02zu">
    <mxGraphModel>
      <root>
        <mxCell id="0" />
        <mxCell id="1" parent="0" />
      </root>
    </mxGraphModel>
  </diagram>
</mxfile>
